<svg xmlns="http://www.w3.org/2000/svg" xmlns:xlink="http://www.w3.org/1999/xlink" width="328" height="357" version="1.1" viewBox="0 0 328 357"><title>Rectangle 2</title><desc>Created with Sketch.</desc><defs><path id="path-1" d="M50,0 L278,0 C305.614237,-5.07265313e-15 328,22.3857625 328,50 L328,357 L328,357 L0,357 L0,50 C-3.38176876e-15,22.3857625 22.3857625,5.07265313e-15 50,0 Z"/></defs><g id="Page-1" fill="none" fill-rule="evenodd" stroke="none" stroke-width="1"><g id="Icon" transform="translate(-92.000000, -155.000000)"><g id="Rectangle-2" transform="translate(92.000000, 155.000000)"><mask id="mask-2" fill="#fff"><use xlink:href="#path-1"/></mask><use id="Rectangle" fill="#FFF" xlink:href="#path-1"/><g id="Group-2" mask="url(#mask-2)"><g id="Oval-2"><g transform="translate(32.000000, 68.000000)"><circle id="Oval" cx="32" cy="32" r="32" fill="#7F7F7F"/><g id="Group" fill="#7F7F7F" transform="translate(88.000000, 12.000000)"><rect id="Rectangle" width="106" height="19" x="0" y="0"/><rect id="Rectangle" width="130" height="10" x="0" y="31" opacity=".568"/></g></g><g transform="translate(32.000000, 68.000000) translate(0.000000, 88.000000)"><circle id="Oval" cx="32" cy="32" r="32" fill="#7F7F7F"/><g id="Group" fill="#7F7F7F" transform="translate(88.000000, 12.000000)"><rect id="Rectangle" width="106" height="19" x="0" y="0"/><rect id="Rectangle" width="130" height="10" x="0" y="31" opacity=".568"/></g></g><g transform="translate(32.000000, 68.000000) translate(0.000000, 176.000000)"><circle id="Oval" cx="32" cy="32" r="32" fill="#7F7F7F"/><g id="Group" fill="#7F7F7F" transform="translate(88.000000, 12.000000)"><rect id="Rectangle" width="106" height="19" x="0" y="0"/><rect id="Rectangle" width="130" height="10" x="0" y="31" opacity=".568"/></g></g><g transform="translate(32.000000, 68.000000) translate(0.000000, 264.000000)"><circle id="Oval" cx="32" cy="32" r="32" fill="#7F7F7F"/><g id="Group" fill="#7F7F7F" transform="translate(88.000000, 12.000000)"><rect id="Rectangle" width="106" height="19" x="0" y="0"/></g></g></g></g><rect id="Rectangle" width="100" height="12" x="114" y="20" fill="#000" mask="url(#mask-2)" opacity=".75" rx="6"/></g></g></g></svg>